<svg width="96" height="74" viewBox="0 0 96 74" fill="none" xmlns="http://www.w3.org/2000/svg">
<path d="M2.6 41.9751L31.9 71.2751C34.6 73.9751 39.1 73.9751 41.8 71.2751C44.5 68.5751 44.5 64.0751 41.8 61.3751L24.5 43.9751L88.5 43.975C92.4 43.975 95.5 40.875 95.5 36.975C95.5 33.075 92.4 29.975 88.5 29.975L24.5 29.9751L41.8 12.675C44.5 9.97505 44.5 5.47506 41.8 2.77506C40.4 1.37506 38.6 0.675054 36.8 0.675054C35 0.675054 33.2 1.37506 31.8 2.77506L2.59999 31.9751C1.3 33.2751 0.499997 35.0751 0.499997 36.9751C0.499997 38.8751 1.2 40.6751 2.6 41.9751Z" fill="#4B392A"/>
</svg>
