<?xml version="1.0" encoding="UTF-8"?>
<svg width="20px" height="20px" viewBox="0 0 20 20" version="1.1" xmlns="http://www.w3.org/2000/svg" xmlns:xlink="http://www.w3.org/1999/xlink">
    <title>search</title>
    <g id="search" stroke="none" stroke-width="1" fill="none" fill-rule="evenodd">
        <path d="M19.7014925,18.3084577 L15.1243781,13.7313433 C15.1243781,13.7313433 15.1243781,13.7313433 15.1243781,13.7313433 C16.2189055,12.3383085 16.9154229,10.4477612 16.9154229,8.45771144 C16.9154229,3.78109453 13.1343284,1.42108547e-14 8.45771144,1.42108547e-14 C3.78109453,1.42108547e-14 1.42108547e-14,3.78109453 1.42108547e-14,8.45771144 C1.42108547e-14,13.1343284 3.78109453,16.9154229 8.45771144,16.9154229 C10.4477612,16.9154229 12.238806,16.2189055 13.7313433,15.1243781 L18.3084577,19.7014925 C18.7064677,20.0995025 19.3034826,20.0995025 19.7014925,19.7014925 C20.0995025,19.3034826 20.0995025,18.7064677 19.7014925,18.3084577 M8.45771144,14.9253731 C4.87562189,14.9253731 1.99004975,12.039801 1.99004975,8.45771144 C1.99004975,4.87562189 4.87562189,1.99004975 8.45771144,1.99004975 C12.039801,1.99004975 14.9253731,4.87562189 14.9253731,8.45771144 C14.9253731,12.039801 12.039801,14.9253731 8.45771144,14.9253731" id="Shape" fill="#000000" fill-rule="nonzero"></path>
    </g>
</svg>