<svg width="79" height="95" viewBox="0 0 79 95" fill="none" xmlns="http://www.w3.org/2000/svg">
<path d="M11.5998 87.6C11.8998 91.8 15.3998 95 19.5998 95H58.9998C63.1998 95 66.6998 91.8 66.9998 87.6L71.7998 29.9H6.7998L11.5998 87.6ZM52.9998 43.4C53.0998 41.9 54.3998 40.8 55.8998 40.9C57.3998 41 58.4998 42.3 58.3998 43.8L55.8998 81.7C55.7998 83.2 54.4998 84.3 52.9998 84.2C51.4998 84.1 50.3998 82.8 50.4998 81.3L52.9998 43.4ZM36.5998 43.5C36.5998 42 37.7998 40.8 39.2998 40.8C40.7998 40.8 41.9998 42 41.9998 43.5V81.4C41.9998 82.9 40.7998 84.1 39.2998 84.1C37.7998 84.1 36.5998 82.9 36.5998 81.4V43.5ZM22.7998 40.8C24.2998 40.7 25.5998 41.8 25.6998 43.3L28.1998 81.2C28.2998 82.7 27.1998 84 25.6998 84.1C24.1998 84.2 22.8998 83.1 22.7998 81.6L20.2998 43.7C20.0998 42.2 21.2998 40.9 22.7998 40.8Z" fill="#4B392A"/>
<path d="M69.9 13.7H54.9C54 6 47.5 0 39.6 0H38.9C31 0 24.5 6 23.7 13.7H8.7C3.9 13.7 0 17.6 0 22.4C0 23.6 0.9 24.5 2.1 24.5H76.5C77.7 24.5 78.6 23.6 78.6 22.4C78.6 17.6 74.7 13.7 69.9 13.7ZM39 8.1H39.7C43.1 8.1 45.9 10.5 46.7 13.7H32C32.7 10.5 35.6 8.1 39 8.1Z" fill="#4B392A"/>
</svg>
